<?xml version="1.0" standalone="no"?>
<!DOCTYPE svg PUBLIC "-//W3C//DTD SVG 20010904//EN"
 "http://www.w3.org/TR/2001/REC-SVG-20010904/DTD/svg10.dtd">
<svg version="1.0" xmlns="http://www.w3.org/2000/svg"
 width="225.000000pt" height="225.000000pt" viewBox="0 0 225.000000 225.000000"
 preserveAspectRatio="xMidYMid meet">

<g transform="translate(0.000000,225.000000) scale(0.100000,-0.100000)"
fill="#000000" stroke="none">
<path d="M741 1600 c-52 -11 -70 -25 -54 -41 8 -8 28 -9 70 -1 80 14 162 0
228 -37 57 -32 100 -41 93 -18 -6 18 -94 75 -136 87 -55 16 -151 20 -201 10z"/>
<path d="M561 1504 c-50 -45 -107 -142 -113 -194 -5 -42 31 -33 46 12 21 60
63 124 107 162 27 23 39 40 36 51 -10 23 -21 19 -76 -31z"/>
<path d="M1074 1462 c-63 -24 -104 -50 -104 -67 0 -24 24 -22 84 9 52 27 69
31 140 30 128 -1 223 -57 286 -168 l29 -50 56 3 c45 2 68 -3 111 -24 96 -47
148 -133 143 -236 -3 -46 -1 -50 35 -74 60 -41 93 -16 36 27 -27 20 -30 27
-30 77 0 144 -127 271 -272 271 -48 0 -58 3 -63 20 -14 44 -113 136 -177 165
-83 38 -198 45 -274 17z"/>
<path d="M880 1308 c-23 -38 -26 -68 -7 -68 16 0 69 78 61 91 -11 18 -35 8
-54 -23z"/>
<path d="M441 1188 c0 -59 20 -112 43 -116 17 -4 18 0 11 34 -4 22 -10 57 -13
79 -5 27 -13 41 -24 43 -15 3 -18 -4 -17 -40z"/>
<path d="M820 1181 c-8 -4 -32 -16 -53 -26 -44 -22 -77 -70 -84 -124 -5 -36
-8 -39 -42 -45 -46 -7 -116 -66 -137 -115 -45 -102 -1 -219 101 -274 37 -20
55 -22 230 -22 183 0 190 1 190 20 0 19 -8 20 -196 25 l-196 5 -37 29 c-48 36
-70 86 -64 148 9 86 76 148 162 148 l44 0 -5 58 c-5 52 -3 59 22 85 26 26 40
32 90 39 27 4 35 58 8 57 -10 0 -25 -4 -33 -8z"/>
<path d="M494 1046 c-7 -18 24 -66 42 -66 22 0 24 15 4 48 -21 34 -37 41 -46
18z"/>
<path d="M1183 1054 c-20 -8 -15 -52 6 -63 26 -14 54 8 49 40 -3 24 -28 34
-55 23z"/>
<path d="M1430 1045 c-18 -22 -8 -50 21 -53 34 -4 54 20 39 47 -12 24 -42 27
-60 6z"/>
<path d="M990 896 c0 -2 7 -6 15 -10 8 -3 15 -1 15 4 0 6 -7 10 -15 10 -8 0
-15 -2 -15 -4z"/>
<path d="M1060 885 c0 -8 -6 -15 -14 -15 -8 0 -16 -7 -20 -15 -4 -11 2 -15 23
-15 24 0 28 4 28 30 0 17 -4 30 -9 30 -4 0 -8 -7 -8 -15z"/>
<path d="M1539 884 c-8 -10 -3 -12 22 -9 33 5 63 -10 53 -26 -3 -5 -1 -9 5 -9
5 0 13 5 16 10 3 6 1 10 -5 10 -6 0 -8 5 -5 10 4 6 11 8 16 5 5 -3 6 0 3 8 -6
18 -91 18 -105 1z"/>
<path d="M2025 890 c-3 -6 1 -7 9 -4 18 7 21 14 7 14 -6 0 -13 -4 -16 -10z"/>
<path d="M1236 875 c-14 -39 43 -95 96 -95 53 0 114 65 93 99 -3 7 -43 11 -95
11 -69 0 -89 -3 -94 -15z m152 -27 c-9 -26 -49 -38 -82 -24 -53 21 -44 36 24
36 45 0 61 -3 58 -12z"/>
<path d="M976 865 c4 -8 10 -15 15 -15 4 0 6 7 3 15 -4 8 -10 15 -15 15 -4 0
-6 -7 -3 -15z"/>
<path d="M1545 849 c7 -10 55 -18 55 -9 0 4 -13 10 -29 12 -17 2 -28 1 -26 -3z"/>
<path d="M2048 813 c7 -3 16 -2 19 1 4 3 -2 6 -13 5 -11 0 -14 -3 -6 -6z"/>
<path d="M1920 773 c0 -21 -7 -51 -15 -67 -19 -37 -19 -66 1 -66 41 0 72 161
32 168 -15 3 -18 -4 -18 -35z"/>
<path d="M1750 621 c-56 -5 -65 -9 -65 -26 0 -18 6 -20 66 -18 76 2 119 16
119 38 0 16 -3 16 -120 6z"/>
<path d="M1084 605 c-9 -23 9 -37 42 -33 21 2 29 8 29 23 0 26 -62 35 -71 10z"/>
<path d="M1196 611 c-3 -5 -3 -16 0 -25 6 -15 31 -16 213 -14 198 3 206 4 206
23 0 19 -8 20 -207 23 -120 1 -209 -2 -212 -7z"/>
</g>
</svg>
